<?xml version="1.0" encoding="UTF-8"?>
<svg id="Layer_1" xmlns="http://www.w3.org/2000/svg" version="1.1" viewBox="0 0 1024 1024">
  <!-- Generator: Adobe Illustrator 29.5.1, SVG Export Plug-In . SVG Version: 2.1.0 Build 141)  -->
  <defs>
    <style>
      .st0 {
        fill-rule: evenodd;
      }
    </style>
  </defs>
  <!--circle -->
  <circle fill="var(--bcolor)" cx="512" cy="512" r="498.47"/>
  <!-- glasses, left lens, right lens-->


  <path class="st0" fill="var(--pcolor)" d="M534.5,177.37c3.15-.29,6.15.21,9,1.5,11.24,11.24,21.74,23.07,31.5,35.5,23.21,32.4,43.87,66.4,62,102,5.14,3.49,10.64,6.32,16.5,8.5,39.17,13.69,79.5,19.03,121,16,16.7-2.87,33.37-5.87,50-9,15.12-5.39,30.12-11.06,45-17,8.17-1.17,11.67,2.33,10.5,10.5-.78,1.79-1.95,3.29-3.5,4.5-44.17,19.6-90.51,28.93-139,28-30.41-1.75-60.08-7.25-89-16.5,2.52,10.4,5.35,20.73,8.5,31,3.48,24.9,5.98,49.9,7.5,75,54.29-4.96,108.62-5.13,163-.5,22.96,2.74,45.96,5.08,69,7,2.39.3,4.55,1.14,6.5,2.5.67,5,.67,10,0,15-1.26,7.63-2.26,15.3-3,23-13.02,7.68-20.35,19.02-22,34-1.04,2.25-2.21,4.41-3.5,6.5-6.65,2.51-13.48,4.01-20.5,4.5-.82,20.62-4.82,40.62-12,60-3.2,8.59-6.2,17.26-9,26-7.84,15.84-18.01,30.01-30.5,42.5-22,14.93-46.33,23.59-73,26-14.33.67-28.67.67-43,0-31.94-1.19-58.44-13.69-79.5-37.5-4.24-4.82-8.24-9.82-12-15-10.96-20.24-19.96-41.24-27-63-1.19-16.02-1.53-32.02-1-48-4.14-1.14-7.47-3.47-10-7-2.25-6.57-4.25-13.23-6-20l-1.5-1.5c-25-2-50-2-75,0l-1.5,1.5c-1.45,6.85-3.45,13.52-6,20-2.84,3.08-6.18,5.42-10,7,.53,15.98.19,31.98-1,48-6.73,21.13-15.4,41.47-26,61-16.26,23.6-37.76,40.43-64.5,50.5-38.45,7.42-76.45,5.76-114-5-10.15-4.57-19.82-9.91-29-16-12.83-12.82-23.33-27.32-31.5-43.5-8.07-20.82-14.41-42.15-19-64-.16-7.06-.83-14.06-2-21l-1.5-1.5c-6.12-.35-12.12-1.35-18-3-1.54-1.58-2.71-3.41-3.5-5.5-.8-10.77-4.97-19.93-12.5-27.5-3.59-2.71-7.09-5.55-10.5-8.5-1.54-10.12-2.7-20.29-3.5-30.5.17-2.5.33-5,.5-7.5l1.5-1.5c53.56-7.46,107.39-11.29,161.5-11.5,23.87.36,47.71,1.52,71.5,3.5,15.82,2.23,31.49,5.23,47,9,23.36,6.9,46.36,14.57,69,23,26.67.67,53.33.67,80,0,12.82-4.27,25.49-8.94,38-14,14.69-4.17,29.35-8.34,44-12.5,1.02-.5,1.19-1.17.5-2-20.78-20.78-41.61-41.61-62.5-62.5-21.09-18.42-42.75-36.09-65-53-19.04-11.19-38.38-21.86-58-32-39.54-16.96-80.21-30.29-122-40-52.28-5.96-104.28-4.13-156,5.5-6.75-1.13-9.25-5.13-7.5-12,1.64-2.31,3.8-3.81,6.5-4.5,14.64-2.12,29.31-4.12,44-6,38.01-2.77,76.01-2.43,114,1,13.75,2.58,27.42,5.58,41,9,29.61,9.87,58.94,20.54,88,32,20.46,11.07,40.8,22.4,61,34,21.91,16.58,43.25,33.91,64,52,21.87,20.87,43.37,42.04,64.5,63.5,1.5-.17,2.33-1,2.5-2.5-2.21-19.2-4.71-38.36-7.5-57.5-4.47-17.41-10.14-34.41-17-51-22.51-44.38-49.51-85.71-81-124-3.35-3.42-6.68-6.75-10-10-3.74-5.64-3.24-10.64,1.5-15Z"/>
  <path class="st0" fill="var(--bcolor)" d="M415.5,646.37c-3.67,3-7,6.33-10,10-4.5,4.33-9.17,8.5-14,12.5-7.33,4-14.67,8-22,12-30.45,8.31-61.12,9.31-92,3-9.44-1.96-18.78-4.29-28-7-5.62-2.48-10.96-5.48-16-9-9.57-8.9-18.4-18.4-26.5-28.5-22.09-40.87-32.09-84.54-30-131,8.15-27.52,26.65-42.35,55.5-44.5,54.49-5.22,108.49-2.22,162,9,13.55,3.61,25.88,9.61,37,18,8.45,9.79,14.28,20.95,17.5,33.5.47,20.51-1.2,40.84-5,61-3.8,11.08-7.8,22.08-12,33-5.27,9.55-10.77,18.89-16.5,28Z"/>
  <path class="st0" fill="var(--bcolor)" d="M811.5,647.37c-6,5.33-11.67,11-17,17-8.02,7.18-17.35,12.01-28,14.5-10.02,2.21-20.02,4.54-30,7-25.8,3.28-51.47,2.28-77-3-21.59-8.6-39.43-22.1-53.5-40.5-14.35-22.39-24.02-46.72-29-73-.96-13.33-1.8-26.66-2.5-40,3.21-27.24,17.87-45.08,44-53.5,13.7-4.62,27.7-6.62,42-6,2.1-1.77,4.43-3.1,7-4,41.27-5.05,82.6-5.72,124-2,26.25,2.34,44.41,15.51,54.5,39.5,2.09,24.56.42,48.9-5,73-5.27,25.65-15.1,49.32-29.5,71Z"/>
</svg> 