<svg version="1.1" viewBox="0.0 0.0 264.0 264.0" fill="none" stroke="none" stroke-linecap="square" stroke-miterlimit="10" xmlns:xlink="http://www.w3.org/1999/xlink" xmlns="http://www.w3.org/2000/svg"><clipPath id="p.0"><path d="m0 0l264.0 0l0 264.0l-264.0 0l0 -264.0z" clip-rule="nonzero"/></clipPath><g clip-path="url(#p.0)"><path fill="var(--pcolor)" fill-opacity="0.0" d="m0 0l264.0 0l0 264.0l-264.0 0z" fill-rule="evenodd"/><path fill="var(--pcolor)" fill-opacity="0.0" d="m2581.1252 209.83481l261.79224 0l0 261.79245l-261.79224 0z" fill-rule="evenodd"/><g transform="matrix(0.25565669291338583 0.0 0.0 0.25565669291338583 2581.125128871391 209.83481417322832)"><clipPath id="p.1"><path d="m1.8189894E-12 1.1368684E-13l1024.0 0l0 1024.0l-1024.0 0z" clip-rule="evenodd"/></clipPath>
</g><path fill="var(--bcolor)" d="m126.524765 61.181274c27.769028 -70.03674 136.06825 0 0 90.04724c-136.06824 -90.04724 -27.769028 -160.08398 0 -90.04724z" fill-rule="evenodd"/><path fill="var(--bcolor)" d="m199.07095 48.26499l0 0c0 -5.3923836 4.371399 -9.763779 9.763779 -9.763779l0 0c2.5895233 0 5.072983 1.0286827 6.9040375 2.859745c1.83107 1.8310661 2.8597412 4.314522 2.8597412 6.9040337l0 0c0 5.3923874 -4.3713837 9.7637825 -9.763779 9.7637825l0 0c-5.3923798 0 -9.763779 -4.371395 -9.763779 -9.7637825z" fill-rule="evenodd"/><path fill="var(--bcolor)" d="m186.73228 46.577427l19.81102 0l0 5.7322845l-19.81102 0z" fill-rule="evenodd"/><path fill="var(--bcolor)" d="m212.20152 78.654785l0 0c0 -5.3923874 4.3713837 -9.763786 9.763779 -9.763786l0 0c2.589508 0 5.0729675 1.0286865 6.9040375 2.8597488c1.8310547 1.8310623 2.8597412 4.314522 2.8597412 6.9040375l0 0c0 5.3923798 -4.371399 9.763779 -9.763779 9.763779l0 0c-5.392395 0 -9.763779 -4.371399 -9.763779 -9.763779z" fill-rule="evenodd"/><path fill="var(--bcolor)" d="m185.50967 76.96606l34.173233 0l0 5.7322845l-34.173233 0z" fill-rule="evenodd"/><path fill="var(--pcolor)" d="m159.30534 100.71288l0 0c0 5.3923874 -4.371399 9.763779 -9.763779 9.763779l0 0c-2.589508 0 -5.0729675 -1.0286789 -6.9040375 -2.8597488c-1.8310547 -1.8310623 -2.8597412 -4.314514 -2.8597412 -6.90403l0 0c0 -5.3923874 4.371399 -9.763779 9.763779 -9.763779l0 0c5.3923798 0 9.763779 4.3713913 9.763779 9.763779z" fill-rule="evenodd"/><path fill="var(--pcolor)" d="m185.9972 102.4016l-34.173233 0l0 -5.7322845l34.173233 0z" fill-rule="evenodd"/><path fill="var(--bcolor)" d="m197.95207 104.18651l0 0c0 -5.3923874 4.3713837 -9.763779 9.763779 -9.763779l0 0c2.589508 0 5.0729675 1.0286789 6.904022 2.8597488c1.83107 1.8310623 2.8597565 4.314514 2.8597565 6.90403l0 0c0 5.3923874 -4.371399 9.763779 -9.763779 9.763779l0 0c-5.392395 0 -9.763779 -4.3713913 -9.763779 -9.763779z" fill-rule="evenodd"/><path fill="var(--bcolor)" d="m171.26022 102.49779l34.173218 0l0 5.7322845l-34.173218 0z" fill-rule="evenodd"/><path fill="var(--pcolor)" d="m169.49353 75.18115l0 0c0 5.3923874 -4.371399 9.763779 -9.763779 9.763779l0 0c-2.5895233 0 -5.0729675 -1.0286789 -6.9040375 -2.8597412c-1.83107 -1.83107 -2.8597412 -4.314522 -2.8597412 -6.9040375l0 0c0 -5.3923874 4.3713837 -9.763779 9.763779 -9.763779l0 0c5.3923798 0 9.763779 4.3713913 9.763779 9.763779z" fill-rule="evenodd"/><path fill="var(--pcolor)" d="m196.18538 76.86987l-34.173233 0l0 -5.732277l34.173233 0z" fill-rule="evenodd"/><path fill="var(--pcolor)" fill-opacity="0.0" d="m21.779528 145.95801l220.44095 0l0 120.06299l-220.44095 0z" fill-rule="evenodd"/><path fill="var(--bcolor)" d="m46.068512 161.52675l0 7.296875l7.703125 0l0 -7.296875l4.171875 0l0 19.03125l-4.171875 0l0 -8.21875l-7.703125 0l0 8.21875l-4.203125 0l0 -19.03125l4.203125 0zm29.80478 0l0 3.515625l-10.046875 0l0 4.078125l9.203125 0l0 3.25l-9.203125 0l0 4.671875l10.25 0l0 3.515625l-14.453125 0l0 -19.03125l14.25 0zm12.521896 0l7.109375 19.015625l-4.34375 0l-1.421875 -4.234375l-7.125 0l-1.5 4.25l-4.234375 0l7.234375 -19.03125l4.28125 0zm-2.21875 4.6875l-2.46875 6.984375l4.9375 0l-2.40625 -6.984375l-0.0625 0zm21.354843 -4.6875q2.3125 0 3.890625 1.484375q1.578125 1.484375 1.578125 3.78125q0 1.796875 -0.75 2.96875q-0.75 1.171875 -2.265625 1.796875l0 0.046875q1.34375 0.34375 2.046875 1.59375q0.71875 1.25 0.796875 3.828125q0.046875 2.578125 0.734375 3.53125l-4.1875 0q-0.375 -0.921875 -0.5 -3.0q-0.1875 -2.8125 -0.9375 -3.625q-0.75 -0.8125 -2.296875 -0.8125l-4.28125 0l0 7.4375l-4.203125 0l0 -19.03125l10.375 0zm-1.5 8.609375q1.3125 0 2.046875 -0.640625q0.734375 -0.640625 0.734375 -2.078125q0 -1.359375 -0.71875 -2.0q-0.703125 -0.640625 -2.0625 -0.640625l-4.671875 0l0 5.359375l4.671875 0zm24.380493 -8.609375l0 3.515625l-5.703125 0l0 15.515625l-4.1875 0l0 -15.515625l-5.703125 0l0 -3.515625l15.59375 0zm6.3764496 0l0 19.03125l-4.203125 0l0 -19.03125l4.203125 0zm17.049011 0l0 3.515625l-9.1875 0l0 4.40625l7.953125 0l0 3.25l-7.953125 0l0 7.859375l-4.203125 0l0 -19.03125l13.390625 0zm6.613617 0l0 19.03125l-4.203125 0l0 -19.03125l4.203125 0zm12.205261 -0.453125q3.234375 0 5.515625 1.828125q2.296875 1.828125 2.6875 5.015625l-4.046875 0q-0.28125 -1.5 -1.5 -2.40625q-1.203125 -0.921875 -2.671875 -0.921875q-2.453125 0 -3.8125 1.796875q-1.359375 1.78125 -1.359375 4.734375q0 2.828125 1.34375 4.59375q1.359375 1.765625 3.84375 1.765625q1.8125 0 2.921875 -1.109375q1.125 -1.109375 1.390625 -3.140625l4.0625 0q-0.375 3.625 -2.65625 5.703125q-2.265625 2.078125 -5.71875 2.078125q-2.75 0 -4.890625 -1.25q-2.140625 -1.265625 -3.3125 -3.546875q-1.15625 -2.296875 -1.15625 -5.09375q0 -4.390625 2.5625 -7.21875q2.5625 -2.828125 6.796875 -2.828125zm15.414154 0.453125l0 19.03125l-4.203125 0l0 -19.03125l4.203125 0zm13.158386 0l7.109375 19.015625l-4.34375 0l-1.421875 -4.234375l-7.125 0l-1.5 4.25l-4.234375 0l7.234375 -19.03125l4.28125 0zm-2.21875 4.6875l-2.46875 6.984375l4.9375 0l-2.40625 -6.984375l-0.0625 0zm15.182968 -4.6875l0 15.515625l9.28125 0l0 3.515625l-13.484375 0l0 -19.03125l4.203125 0z" fill-rule="nonzero"/><path fill="var(--bcolor)" d="m40.569336 193.52675l0 19.03125l-4.203125 0l0 -19.03125l4.203125 0zm7.830261 0l7.9375 12.765625l0.046875 0l0 -12.765625l3.921875 0l0 19.03125l-4.171875 0l-7.921875 -12.75l-0.0625 0l0 12.75l-3.921875 0l0 -19.03125l4.171875 0zm29.695404 0l0 3.515625l-5.703125 0l0 15.515625l-4.1875 0l0 -15.515625l-5.703125 0l0 -3.515625l15.59375 0zm16.423325 0l0 3.515625l-10.046875 0l0 4.078125l9.203125 0l0 3.25l-9.203125 0l0 4.671875l10.25 0l0 3.515625l-14.453125 0l0 -19.03125l14.25 0zm7.2250214 0l0 15.515625l9.28125 0l0 3.515625l-13.484375 0l0 -19.03125l4.203125 0zm15.801117 0l0 15.515625l9.28125 0l0 3.515625l-13.484375 0l0 -19.03125l4.203125 0zm15.801117 0l0 19.03125l-4.203125 0l0 -19.03125l4.203125 0zm12.189636 -0.453125q3.09375 0 5.390625 1.796875q2.296875 1.78125 2.640625 4.921875l-4.0 0q-0.40625 -1.609375 -1.453125 -2.40625q-1.046875 -0.796875 -2.5625 -0.796875q-2.484375 0 -3.84375 1.8125q-1.34375 1.796875 -1.34375 4.71875q0 2.765625 1.328125 4.5625q1.34375 1.796875 3.859375 1.796875q2.0 0 3.15625 -1.015625q1.171875 -1.015625 1.375 -3.078125l-4.21875 0l0 -3.125l8.0 0l0 10.296875l-2.671875 0l-0.421875 -2.140625q-1.03125 1.28125 -2.328125 1.9375q-1.296875 0.65625 -2.90625 0.65625q-2.71875 0 -4.875 -1.25q-2.140625 -1.265625 -3.3125 -3.546875q-1.15625 -2.296875 -1.15625 -5.09375q0 -4.390625 2.5625 -7.21875q2.5625 -2.828125 6.78125 -2.828125zm25.94522 0.453125l0 3.515625l-10.046875 0l0 4.078125l9.203125 0l0 3.25l-9.203125 0l0 4.671875l10.25 0l0 3.515625l-14.453125 0l0 -19.03125l14.25 0zm7.1937714 0l7.9375 12.765625l0.046875 0l0 -12.765625l3.921875 0l0 19.03125l-4.171875 0l-7.921875 -12.75l-0.0625 0l0 12.75l-3.921875 0l0 -19.03125l4.171875 0zm24.132904 -0.453125q3.234375 0 5.515625 1.828125q2.296875 1.828125 2.6875 5.015625l-4.046875 0q-0.28125 -1.5 -1.5 -2.40625q-1.203125 -0.921875 -2.671875 -0.921875q-2.453125 0 -3.8125 1.796875q-1.359375 1.78125 -1.359375 4.734375q0 2.828125 1.34375 4.59375q1.359375 1.765625 3.84375 1.765625q1.8125 0 2.921875 -1.109375q1.125 -1.109375 1.390625 -3.140625l4.0625 0q-0.375 3.625 -2.65625 5.703125q-2.265625 2.078125 -5.71875 2.078125q-2.75 0 -4.890625 -1.25q-2.140625 -1.265625 -3.3125 -3.546875q-1.15625 -2.296875 -1.15625 -5.09375q0 -4.390625 2.5625 -7.21875q2.5625 -2.828125 6.796875 -2.828125zm25.46103 0.453125l0 3.515625l-10.046875 0l0 4.078125l9.203125 0l0 3.25l-9.203125 0l0 4.671875l10.25 0l0 3.515625l-14.453125 0l0 -19.03125l14.25 0z" fill-rule="nonzero"/></g></svg>