<?xml version="1.0" encoding="UTF-8"?>
<!DOCTYPE svg PUBLIC "-//W3C//DTD SVG 1.1//EN" "http://www.w3.org/Graphics/SVG/1.1/DTD/svg11.dtd">
<svg viewBox="0 0 1024 1024" xmlns="http://www.w3.org/2000/svg" version="1.1" style="shape-rendering:geometricPrecision; text-rendering:geometricPrecision; image-rendering:optimizeQuality; fill-rule:evenodd; clip-rule:evenodd" xmlns:xlink="http://www.w3.org/1999/xlink"><g><path style="opacity:0.997" fill="var(--bcolor)" d="M 493.5,19.5 C 653.822,13.2837 788.989,67.9504 899,183.5C 1004.46,303.934 1046.46,443.934 1025,603.5C 1001.04,742.674 932.54,853.841 819.5,937C 690.622,1025.17 549.956,1051.17 397.5,1015C 243.941,971.765 132.775,878.265 64,734.5C 16.1431,625.515 6.47641,513.182 35,397.5C 78.2351,243.941 171.735,132.775 315.5,64C 372.353,38.7868 431.686,23.9535 493.5,19.5 Z"/></g>
<g><path style="opacity:1" fill="var(--pcolor)" d="M 547.5,198.5 C 550.649,198.211 553.649,198.711 556.5,200C 567.743,211.239 578.243,223.072 588,235.5C 611.205,267.9 631.871,301.9 650,337.5C 655.139,340.987 660.639,343.82 666.5,346C 705.669,359.693 746.002,365.026 787.5,362C 804.204,359.126 820.871,356.126 837.5,353C 852.62,347.605 867.62,341.938 882.5,336C 890.667,334.833 894.167,338.333 893,346.5C 892.215,348.286 891.049,349.786 889.5,351C 845.329,370.601 798.995,379.934 750.5,379C 720.085,377.252 690.418,371.752 661.5,362.5C 664.021,372.898 666.854,383.232 670,393.5C 673.481,418.404 675.981,443.404 677.5,468.5C 731.792,463.541 786.125,463.374 840.5,468C 863.457,470.745 886.457,473.078 909.5,475C 911.888,475.303 914.055,476.137 916,477.5C 916.667,482.5 916.667,487.5 916,492.5C 914.74,500.133 913.74,507.799 913,515.5C 899.978,523.182 892.645,534.515 891,549.5C 889.961,551.746 888.794,553.913 887.5,556C 880.852,558.511 874.019,560.011 867,560.5C 866.18,581.118 862.18,601.118 855,620.5C 851.803,629.092 848.803,637.758 846,646.5C 838.16,662.34 827.993,676.506 815.5,689C 793.499,703.926 769.166,712.593 742.5,715C 728.167,715.667 713.833,715.667 699.5,715C 667.563,713.809 641.063,701.309 620,677.5C 615.76,672.683 611.76,667.683 608,662.5C 597.043,642.262 588.043,621.262 581,599.5C 579.808,583.484 579.474,567.484 580,551.5C 575.859,550.365 572.525,548.031 570,544.5C 567.751,537.933 565.751,531.266 564,524.5C 563.5,524 563,523.5 562.5,523C 537.5,521 512.5,521 487.5,523C 487,523.5 486.5,524 486,524.5C 484.548,531.349 482.548,538.015 480,544.5C 477.157,547.584 473.824,549.917 470,551.5C 470.526,567.484 470.192,583.484 469,599.5C 462.268,620.634 453.601,640.967 443,660.5C 426.739,684.102 405.239,700.935 378.5,711C 340.046,718.425 302.046,716.758 264.5,706C 254.351,701.428 244.684,696.095 235.5,690C 222.674,677.18 212.174,662.68 204,646.5C 195.926,625.685 189.593,604.351 185,582.5C 184.84,575.437 184.173,568.437 183,561.5C 182.5,561 182,560.5 181.5,560C 175.384,559.647 169.384,558.647 163.5,557C 161.959,555.421 160.792,553.587 160,551.5C 159.195,540.733 155.028,531.567 147.5,524C 143.908,521.287 140.408,518.453 137,515.5C 135.464,505.379 134.297,495.212 133.5,485C 133.667,482.5 133.833,480 134,477.5C 134.5,477 135,476.5 135.5,476C 189.059,468.543 242.892,464.71 297,464.5C 320.872,464.857 344.706,466.023 368.5,468C 384.321,470.231 399.988,473.231 415.5,477C 438.861,483.898 461.861,491.565 484.5,500C 511.167,500.667 537.833,500.667 564.5,500C 577.321,495.727 589.987,491.06 602.5,486C 617.189,481.829 631.855,477.662 646.5,473.5C 647.521,472.998 647.688,472.332 647,471.5C 626.221,450.721 605.387,429.887 584.5,409C 563.414,390.576 541.747,372.91 519.5,356C 500.456,344.811 481.123,334.145 461.5,324C 421.959,307.042 381.293,293.708 339.5,284C 287.217,278.037 235.217,279.87 183.5,289.5C 176.754,288.366 174.254,284.366 176,277.5C 177.637,275.19 179.804,273.69 182.5,273C 197.144,270.881 211.811,268.881 226.5,267C 264.514,264.232 302.514,264.565 340.5,268C 354.248,270.582 367.915,273.582 381.5,277C 411.106,286.869 440.439,297.536 469.5,309C 489.963,320.066 510.296,331.399 530.5,343C 552.413,359.576 573.747,376.909 594.5,395C 616.371,415.872 637.871,437.038 659,458.5C 660.5,458.333 661.333,457.5 661.5,456C 659.288,436.804 656.788,417.638 654,398.5C 649.53,381.09 643.863,364.09 637,347.5C 614.491,303.125 587.491,261.792 556,223.5C 552.65,220.081 549.316,216.748 546,213.5C 542.264,207.86 542.764,202.86 547.5,198.5 Z"/></g>
<g><path style="opacity:1" fill="var(--bcolor)" d="M 428.5,667.5 C 424.833,670.5 421.5,673.833 418.5,677.5C 414.002,681.83 409.335,685.997 404.5,690C 397.167,694 389.833,698 382.5,702C 352.048,710.311 321.381,711.311 290.5,705C 281.057,703.045 271.724,700.712 262.5,698C 256.875,695.521 251.542,692.521 246.5,689C 236.932,680.102 228.099,670.602 220,660.5C 197.909,619.628 187.909,575.961 190,529.5C 198.147,501.983 216.647,487.149 245.5,485C 299.993,479.782 353.993,482.782 407.5,494C 421.049,497.609 433.383,503.609 444.5,512C 452.949,521.787 458.782,532.954 462,545.5C 462.471,566.006 460.804,586.339 457,606.5C 453.197,617.577 449.197,628.577 445,639.5C 439.729,649.053 434.229,658.387 428.5,667.5 Z"/></g>
<g><path style="opacity:1" fill="var(--bcolor)" d="M 824.5,668.5 C 818.5,673.833 812.833,679.5 807.5,685.5C 799.482,692.677 790.149,697.51 779.5,700C 769.478,702.205 759.478,704.538 749.5,707C 723.698,710.283 698.031,709.283 672.5,704C 650.907,695.399 633.074,681.899 619,663.5C 604.647,641.113 594.98,616.779 590,590.5C 589.037,577.174 588.203,563.841 587.5,550.5C 590.707,523.257 605.374,505.424 631.5,497C 645.204,492.381 659.204,490.381 673.5,491C 675.596,489.234 677.929,487.901 680.5,487C 721.768,481.95 763.101,481.283 804.5,485C 830.746,487.344 848.913,500.51 859,524.5C 861.091,549.063 859.424,573.397 854,597.5C 848.733,623.151 838.9,646.818 824.5,668.5 Z"/></g>
<g><path style="opacity:1" fill="var(--pcolor)" d="M 428.5,667.5 C 426.167,671.833 422.833,675.167 418.5,677.5C 421.5,673.833 424.833,670.5 428.5,667.5 Z"/></g>
<g><path style="opacity:1" fill="var(--pcolor)" d="M 824.5,668.5 C 819.833,675.167 814.167,680.833 807.5,685.5C 812.833,679.5 818.5,673.833 824.5,668.5 Z"/></g>
</svg>
